<svg width="459" height="182" viewBox="0 0 459 182" fill="none" xmlns="http://www.w3.org/2000/svg">
<rect x="216.904" y="57.5438" width="213.144" height="51.1777" rx="25.5889" transform="rotate(12.4939 216.904 57.5438)" fill="#7544B3"/>
<path d="M66.1376 70.1726C56.8717 70.1726 47.4981 72.6506 41.1413 77.1758L47.1749 88.9198C51.3769 85.5798 57.7337 83.5326 63.875 83.5326C72.9254 83.5326 77.2351 87.7346 77.2351 94.9534H63.875C46.2052 94.9534 38.9865 102.064 38.9865 112.3C38.9865 122.32 47.0672 129.862 60.6427 129.862C69.1544 129.862 75.188 127.061 78.3125 121.781V129H94.0429V95.923C94.0429 78.361 83.8074 70.1726 66.1376 70.1726ZM64.8447 118.549C58.9188 118.549 55.3633 115.748 55.3633 111.546C55.3633 107.667 57.8414 104.758 65.7066 104.758H77.2351V110.684C75.2957 115.963 70.4473 118.549 64.8447 118.549ZM144.487 70.1726C136.621 70.1726 129.834 72.8661 125.308 77.8223V71.0345H109.255V129H126.063V100.34C126.063 89.674 131.881 84.7178 139.961 84.7178C147.396 84.7178 151.705 89.0275 151.705 98.4011V129H168.513V95.8153C168.513 78.1455 158.17 70.1726 144.487 70.1726ZM192.153 62.9538C198.402 62.9538 202.604 58.8596 202.604 53.257C202.604 48.0853 198.402 44.2066 192.153 44.2066C185.904 44.2066 181.702 48.3008 181.702 53.5802C181.702 58.8596 185.904 62.9538 192.153 62.9538ZM183.749 129H200.557V71.0345H183.749V129ZM290.39 70.1726C281.663 70.1726 274.121 73.7281 269.488 79.6539C265.394 73.2971 258.498 70.1726 250.418 70.1726C242.984 70.1726 236.519 72.7584 232.209 77.7145V71.0345H216.156V129H232.963V99.9095C232.963 89.5662 238.243 84.7178 245.677 84.7178C252.68 84.7178 256.667 89.0275 256.667 98.4011V129H273.475V99.9095C273.475 89.5662 278.754 84.7178 286.296 84.7178C293.084 84.7178 297.286 89.0275 297.286 98.4011V129H314.094V95.8153C314.094 78.1455 304.181 70.1726 290.39 70.1726ZM337.563 62.9538C343.812 62.9538 348.014 58.8596 348.014 53.257C348.014 48.0853 343.812 44.2066 337.563 44.2066C331.314 44.2066 327.112 48.3008 327.112 53.5802C327.112 58.8596 331.314 62.9538 337.563 62.9538ZM329.159 129H345.967V71.0345H329.159V129ZM417.484 129L395.074 99.3708L416.622 71.0345H398.737L386.131 87.9501L373.849 71.0345H354.994L376.542 99.8018L354.239 129H372.556L385.7 111.222L398.414 129H417.484Z" fill="white"/>
</svg>
